<svg xmlns="http://www.w3.org/2000/svg" viewBox="0 0 900 1200" role="img" aria-labelledby="t d"><title id="t">Is Damage Control Becoming the MCU’s Anti-Mutant Agency?</title><desc id="d">Original RogueVerse editorial illustration for Is Damage Control Becoming the MCU’s Anti-Mutant Agency?.</desc><defs><linearGradient id="bg" x1="0" y1="0" x2="1" y2="1"><stop stop-color="#05070b"/><stop offset=".52" stop-color="#0b1020"/><stop offset="1" stop-color="#05070b"/></linearGradient><radialGradient id="a"><stop stop-color="#ff6a00"/><stop offset="1" stop-color="#ff6a00" stop-opacity="0"/></radialGradient><radialGradient id="b"><stop stop-color="#9c62ff"/><stop offset="1" stop-color="#9c62ff" stop-opacity="0"/></radialGradient></defs><rect width="900" height="1200" fill="url(#bg)"/><circle cx="675" cy="540" r="396" fill="url(#a)" opacity=".25"/><circle cx="504" cy="816" r="342" fill="url(#b)" opacity=".16"/><circle cx="465" cy="387" r="39" fill="#ff6a00" opacity="0.025"/><circle cx="655" cy="1063" r="40" fill="#9c62ff" opacity="0.037"/><circle cx="728" cy="950" r="41" fill="#ff6a00" opacity="0.049"/><circle cx="335" cy="99" r="24" fill="#9c62ff" opacity="0.061"/><circle cx="599" cy="454" r="16" fill="#ff6a00" opacity="0.073"/><circle cx="309" cy="115" r="12" fill="#9c62ff" opacity="0.025"/><circle cx="378" cy="310" r="10" fill="#ff6a00" opacity="0.037"/><circle cx="675" cy="535" r="30" fill="#9c62ff" opacity="0.049"/><circle cx="125" cy="1057" r="19" fill="#ff6a00" opacity="0.061"/><circle cx="841" cy="67" r="13" fill="#9c62ff" opacity="0.073"/><circle cx="105" cy="959" r="10" fill="#ff6a00" opacity="0.025"/><circle cx="785" cy="335" r="26" fill="#9c62ff" opacity="0.037"/><circle cx="43" cy="600" r="34" fill="#ff6a00" opacity="0.049"/><circle cx="105" cy="749" r="21" fill="#9c62ff" opacity="0.061"/><circle cx="313" cy="857" r="31" fill="#ff6a00" opacity="0.073"/><circle cx="293" cy="419" r="36" fill="#9c62ff" opacity="0.025"/><circle cx="835" cy="211" r="39" fill="#ff6a00" opacity="0.037"/><circle cx="415" cy="975" r="40" fill="#9c62ff" opacity="0.049"/><g opacity=".09" stroke="#fff" stroke-width="2"><path d="M0 240h900M0 480h900M0 720h900M0 960h900"/></g><g transform="translate(693 336)" opacity=".65"><circle r="125" fill="none" stroke="#9c62ff" stroke-width="13"/><circle r="84" fill="none" stroke="#ff6a00" stroke-width="8"/><path d="M0-150l17 105 53 22-53 22L0 150-17-105l-53-22 53-22z" fill="#eef2f8"/></g><g transform="translate(468 924)"><circle cy="-210" r="70" fill="#956347"/><path d="M-66-246q66-62 132 0" stroke="#171719" stroke-width="34" fill="none"/><path d="M-140 230c15-154 46-260 105-319h70c59 59 90 165 105 319z" fill="#0c1016" stroke="#2a313d" stroke-width="8"/><path d="M-102-42h204l-28 224H-74z" fill="#11161d" stroke="#ff6a00" stroke-width="8"/><path d="M-36-32h72v165h-72z" fill="#ece7df"/><path d="M-99 8l198 155M99 8l-198 155" stroke="#ff6a00" stroke-width="6" opacity=".7"/><ellipse cx="-76" cy="245" rx="72" ry="23" fill="#eee"/><ellipse cx="76" cy="245" rx="72" ry="23" fill="#eee"/></g><text x="55" y="70" fill="#ff6a00" font-family="Arial,sans-serif" font-size="21" font-weight="800" letter-spacing="7">ROGUEVERSE MOVIES</text><text x="55" y="116" fill="#acb7c8" font-family="Arial,sans-serif" font-size="15" font-weight="700" letter-spacing="2">ROGUEVERSE MOVIES / FAN THEORY • AUGUST 5, 2026</text><text x="55" y="205" fill="#fff" font-family="Arial,sans-serif" font-size="61" font-weight="900"><tspan x="55" dy="0">Is Damage Control</tspan><tspan x="55" dy="65">Becoming the MCU’s</tspan><tspan x="55" dy="65">Anti-Mutant Agency?</tspan></text><rect x="55" y="1126" width="300" height="8" fill="#ff6a00"/><rect x="375" y="1126" width="130" height="8" fill="#9c62ff"/></svg>