<svg xmlns="http://www.w3.org/2000/svg" viewBox="0 0 1600 900" role="img" aria-labelledby="t d"><title id="t">What If Peter Can Break Doctor Strange&#x27;s Spell?</title><desc id="d">Original RogueVerse editorial illustration for What If Peter Can Break Doctor Strange&#x27;s Spell?.</desc><defs><linearGradient id="bg" x1="0" y1="0" x2="1" y2="1"><stop stop-color="#05070b"/><stop offset=".52" stop-color="#0b1020"/><stop offset="1" stop-color="#05070b"/></linearGradient><radialGradient id="a"><stop stop-color="#ff6a00"/><stop offset="1" stop-color="#ff6a00" stop-opacity="0"/></radialGradient><radialGradient id="b"><stop stop-color="#9c62ff"/><stop offset="1" stop-color="#9c62ff" stop-opacity="0"/></radialGradient></defs><rect width="1600" height="900" fill="url(#bg)"/><circle cx="1200" cy="405" r="396" fill="url(#a)" opacity=".25"/><circle cx="896" cy="612" r="342" fill="url(#b)" opacity=".16"/><circle cx="487" cy="582" r="21" fill="#ff6a00" opacity="0.025"/><circle cx="199" cy="649" r="31" fill="#9c62ff" opacity="0.037"/><circle cx="54" cy="495" r="36" fill="#ff6a00" opacity="0.049"/><circle cx="375" cy="561" r="39" fill="#9c62ff" opacity="0.061"/><circle cx="770" cy="656" r="40" fill="#ff6a00" opacity="0.073"/><circle cx="249" cy="489" r="24" fill="#9c62ff" opacity="0.025"/><circle cx="1194" cy="97" r="16" fill="#ff6a00" opacity="0.037"/><circle cx="329" cy="635" r="16" fill="#9c62ff" opacity="0.049"/><circle cx="1225" cy="361" r="29" fill="#ff6a00" opacity="0.061"/><circle cx="1149" cy="441" r="35" fill="#9c62ff" opacity="0.073"/><circle cx="388" cy="357" r="38" fill="#ff6a00" opacity="0.025"/><circle cx="837" cy="583" r="23" fill="#9c62ff" opacity="0.037"/><circle cx="1558" cy="570" r="15" fill="#ff6a00" opacity="0.049"/><circle cx="1265" cy="157" r="11" fill="#9c62ff" opacity="0.061"/><circle cx="149" cy="835" r="26" fill="#ff6a00" opacity="0.073"/><circle cx="1389" cy="195" r="34" fill="#9c62ff" opacity="0.025"/><circle cx="213" cy="346" r="21" fill="#ff6a00" opacity="0.037"/><circle cx="837" cy="475" r="31" fill="#9c62ff" opacity="0.049"/><g opacity=".09" stroke="#fff" stroke-width="2"><path d="M0 180h1600M0 360h1600M0 540h1600M0 720h1600"/></g><g transform="translate(1232 252)" opacity=".65"><circle r="125" fill="none" stroke="#9c62ff" stroke-width="13"/><circle r="84" fill="none" stroke="#ff6a00" stroke-width="8"/><path d="M0-150l17 105 53 22-53 22L0 150-17-105l-53-22 53-22z" fill="#eef2f8"/></g><g transform="translate(1264 648)"><circle cy="-210" r="70" fill="#956347"/><path d="M-66-246q66-62 132 0" stroke="#171719" stroke-width="34" fill="none"/><path d="M-140 230c15-154 46-260 105-319h70c59 59 90 165 105 319z" fill="#0c1016" stroke="#2a313d" stroke-width="8"/><path d="M-102-42h204l-28 224H-74z" fill="#11161d" stroke="#ff6a00" stroke-width="8"/><path d="M-36-32h72v165h-72z" fill="#ece7df"/><path d="M-99 8l198 155M99 8l-198 155" stroke="#ff6a00" stroke-width="6" opacity=".7"/><ellipse cx="-76" cy="245" rx="72" ry="23" fill="#eee"/><ellipse cx="76" cy="245" rx="72" ry="23" fill="#eee"/></g><text x="85" y="75" fill="#ff6a00" font-family="Arial,sans-serif" font-size="24" font-weight="800" letter-spacing="7">ROGUEVERSE MOVIES</text><text x="85" y="121" fill="#acb7c8" font-family="Arial,sans-serif" font-size="17" font-weight="700" letter-spacing="2">ROGUEVERSE MOVIES / FAN THEORY • AUGUST 4, 2026</text><text x="85" y="245" fill="#fff" font-family="Arial,sans-serif" font-size="67" font-weight="900"><tspan x="85" dy="0">What If Peter Can Break Doctor</tspan><tspan x="85" dy="72">Strange&#x27;s Spell?</tspan></text><rect x="85" y="826" width="300" height="8" fill="#ff6a00"/><rect x="405" y="826" width="130" height="8" fill="#9c62ff"/></svg>