<svg xmlns="http://www.w3.org/2000/svg" viewBox="0 0 1600 900" role="img" aria-labelledby="t d"><title id="t">Boruto Didn&#x27;t Confirm the Senju Are Extinct. Their Disappearance Is Stranger.</title><desc id="d">Original RogueVerse editorial illustration for Boruto Didn&#x27;t Confirm the Senju Are Extinct. Their Disappearance Is Stranger..</desc><defs><linearGradient id="bg" x1="0" y1="0" x2="1" y2="1"><stop stop-color="#05070b"/><stop offset=".52" stop-color="#0b1020"/><stop offset="1" stop-color="#05070b"/></linearGradient><radialGradient id="ra"><stop stop-color="#ff6a00"/><stop offset="1" stop-color="#ff6a00" stop-opacity="0"/></radialGradient><radialGradient id="rb"><stop stop-color="#1687ff"/><stop offset="1" stop-color="#1687ff" stop-opacity="0"/></radialGradient><filter id="glow"><feGaussianBlur stdDeviation="11" result="g"/><feMerge><feMergeNode in="g"/><feMergeNode in="SourceGraphic"/></feMerge></filter></defs><rect width="1600" height="900" fill="url(#bg)"/><circle cx="1200" cy="405" r="387" fill="url(#ra)" opacity=".24"/><circle cx="928" cy="594" r="342" fill="url(#rb)" opacity=".16"/><circle cx="1351" cy="249" r="11" fill="#ff6a00" opacity="0.025"/><circle cx="390" cy="362" r="24" fill="#1687ff" opacity="0.039"/><circle cx="1222" cy="315" r="30" fill="#ff6a00" opacity="0.053"/><circle cx="362" cy="206" r="33" fill="#1687ff" opacity="0.067"/><circle cx="64" cy="776" r="35" fill="#ff6a00" opacity="0.081"/><circle cx="366" cy="732" r="21" fill="#1687ff" opacity="0.025"/><circle cx="695" cy="719" r="29" fill="#ff6a00" opacity="0.039"/><circle cx="964" cy="310" r="26" fill="#1687ff" opacity="0.053"/><circle cx="1148" cy="366" r="31" fill="#ff6a00" opacity="0.067"/><circle cx="1326" cy="86" r="19" fill="#1687ff" opacity="0.081"/><circle cx="1362" cy="212" r="13" fill="#ff6a00" opacity="0.025"/><circle cx="1070" cy="402" r="25" fill="#1687ff" opacity="0.039"/><circle cx="737" cy="750" r="16" fill="#ff6a00" opacity="0.053"/><circle cx="1546" cy="54" r="26" fill="#1687ff" opacity="0.067"/><g opacity=".09" stroke="#fff" stroke-width="2"><path d="M0 180h1600M0 360h1600M0 540h1600M0 720h1600"/><path d="M320 0v900M640 0v900M960 0v900M1280 0v900"/></g><g transform="translate(1130 175)" opacity=".72"><path d="M-155-92h130c34 0 59 17 75 43 16-26 41-43 75-43h130v210H125c-34 0-59 14-75 38-16-24-41-38-75-38h-130z" fill="none" stroke="#1687ff" stroke-width="12"/><path d="M0-48v200M-116-48h75M-116 1h75M41-48h75M41 1h75" stroke="#ff6a00" stroke-width="9"/></g><g transform="translate(1264 495) scale(1)"><circle r="225" fill="#1687ff" opacity=".12"/><circle r="178" fill="none" stroke="#ff6a00" stroke-width="8" opacity=".36"/><path d="M-165 265c18-170 49-284 113-337h104c64 53 95 167 113 337z" fill="#090c12" stroke="#202938" stroke-width="7"/><circle cy="-112" r="86" fill="#6d4634"/><path d="M-67-96c8 82 34 121 67 121s59-39 67-121c-2 106-22 158-67 158s-65-52-67-158z" fill="#e5e7e8"/><g fill="none" stroke="#050608" stroke-width="11"><rect x="-74" y="-123" width="64" height="41" rx="8"/><rect x="10" y="-123" width="64" height="41" rx="8"/><path d="M-10-103h20"/></g><path d="M0 45v180" stroke="#ff6a00" stroke-width="9"/><path d="M-96 90h58M38 90h58" stroke="#1687ff" stroke-width="8" opacity=".8"/></g><text x="84" y="74" fill="#ff6a00" font-family="Arial,Helvetica,sans-serif" font-size="24" font-weight="800" letter-spacing="7">ANIMANGA UPDATES</text><text x="84" y="120" fill="#aeb9cb" font-family="Arial,Helvetica,sans-serif" font-size="17" font-weight="700" letter-spacing="2">OLD MAN OTAKU / NARUTO &amp; BORUTO • AUGUST 14, 2026</text><text x="84" y="250" fill="#fff" font-family="Arial,Helvetica,sans-serif" font-size="66" font-weight="900"><tspan x="84" dy="0">Boruto Didn&#x27;t Confirm the Senju</tspan><tspan x="84" dy="71">Are Extinct. Their Disappearance</tspan><tspan x="84" dy="71">Is Stranger.</tspan></text><rect x="84" y="830" width="320" height="8" fill="#ff6a00"/><rect x="424" y="830" width="145" height="8" fill="#1687ff"/></svg>