<svg xmlns="http://www.w3.org/2000/svg" viewBox="0 0 1600 900"><defs><linearGradient id="bg" x1="0" x2="1"><stop stop-color="#09051d"/><stop offset="1" stop-color="#27104d"/></linearGradient><linearGradient id="neon"><stop stop-color="#6e39ff"/><stop offset="1" stop-color="#ff3da7"/></linearGradient></defs><rect width="1600" height="900" fill="url(#bg)"/><g opacity=".35" stroke="#7c52ff" fill="none"><path d="M0 120h1600M0 260h1600M0 400h1600M0 540h1600M0 680h1600"/><path d="M180 0v900M420 0v900M660 0v900M900 0v900M1140 0v900M1380 0v900"/></g><circle cx="330" cy="315" r="105" fill="#17112d" stroke="#d351ff" stroke-width="10"/><path d="M245 310q85-170 175-25q-22-150-148-95q-110 52-55 160z" fill="#111426"/><path d="M245 402q85-75 175 0l75 260H170z" fill="#101421" stroke="#5140a4" stroke-width="8"/><path d="M283 323q25 28 56 0" stroke="#ffcc8a" stroke-width="8" fill="none"/><path d="M355 323q26 28 55 0" stroke="#ffcc8a" stroke-width="8" fill="none"/><rect x="600" y="170" width="780" height="485" rx="30" fill="#120c28" stroke="url(#neon)" stroke-width="8"/><text x="650" y="235" fill="#bc9bff" font-family="Arial" font-size="42" font-weight="700">YOUR DIGITAL LIBRARY</text><g fill="#281a51" stroke="#936bff" stroke-width="3"><rect x="650" y="280" width="160" height="210" rx="12"/><rect x="835" y="280" width="160" height="210" rx="12"/><rect x="1020" y="280" width="160" height="210" rx="12"/></g><rect x="750" y="525" width="470" height="90" rx="16" fill="#491535" stroke="#ff3d91" stroke-width="5"/><text x="985" y="580" text-anchor="middle" fill="#ff8bc3" font-family="Arial" font-size="42" font-weight="800">LICENSE REVOKED</text><text x="90" y="800" fill="white" font-family="Arial" font-size="66" font-weight="900">YOU BOUGHT IT. DO YOU OWN IT?</text><text x="94" y="852" fill="#c6b5ff" font-family="Arial" font-size="30">ROGUEVERSE TECH • DIGITAL OWNERSHIP</text></svg>