<svg xmlns="http://www.w3.org/2000/svg" width="1080" height="1920" viewBox="0 0 1080 1920"><defs><linearGradient id="b" x1="0" y1="0" x2="0" y2="1"><stop stop-color="#071427"/><stop offset="1" stop-color="#02060c"/></linearGradient><radialGradient id="g"><stop stop-color="#a682ff"/><stop offset="1" stop-color="#a682ff" stop-opacity="0"/></radialGradient></defs><rect width="1080" height="1920" fill="url(#b)"/><rect x="48" y="48" width="984" height="1824" rx="42" fill="none" stroke="#a682ff" stroke-width="4" opacity=".5"/><text x="72" y="120" font-family="Arial" font-weight="900" font-size="34" fill="#a682ff" letter-spacing="4">ROGUEVERSE · DEEP DIVE</text><g transform="translate(540 940)"><circle r="330" fill="url(#g)" opacity=".3"/><circle cy="-170" r="100" fill="#5b4a44"/><path d="M-115-195q110-130 230 20q-72-34-120 12q-60-40-110-32" fill="#151827"/><path d="M-190-55q190-110 380 0l100 520h-580z" fill="#1b2239"/><path d="M-250 30q-160 100-210 300M250 30q160 100 210 300" stroke="#62e4ff" stroke-width="12"/><path d="M-310 190q310-160 620 0" stroke="#ff7a1a" stroke-width="12" stroke-dasharray="24 18"/></g><g font-family="Arial" fill="#fff"><text x="72" y="285" font-size="72" font-weight="900">ANIME IS MORE</text><text x="72" y="385" font-size="90" font-weight="900" fill="#a682ff">THAN AN ART STYLE</text><text x="72" y="510" font-size="35" font-weight="700">Impact. Rhythm. Emotion.</text><text x="72" y="560" font-size="35" font-weight="700">Combat that reveals character.</text><text x="72" y="1760" font-size="30" font-weight="700" fill="#a682ff">rogueversemedia.com</text><text x="72" y="1812" font-size="24" opacity=".72">Visual grammar matters more than big eyes.</text></g></svg>