<svg xmlns="http://www.w3.org/2000/svg" viewBox="0 0 900 1200" role="img" aria-labelledby="t d"><title id="t">A New Gundam Universe Begins With XARX-ZERO</title><desc id="d">Original RogueVerse editorial illustration for A New Gundam Universe Begins With XARX-ZERO.</desc><defs><linearGradient id="bg" x1="0" y1="0" x2="1" y2="1"><stop stop-color="#05070b"/><stop offset=".52" stop-color="#0b1020"/><stop offset="1" stop-color="#05070b"/></linearGradient><radialGradient id="a"><stop stop-color="#ff6a00"/><stop offset="1" stop-color="#ff6a00" stop-opacity="0"/></radialGradient><radialGradient id="b"><stop stop-color="#1687ff"/><stop offset="1" stop-color="#1687ff" stop-opacity="0"/></radialGradient></defs><rect width="900" height="1200" fill="url(#bg)"/><circle cx="675" cy="540" r="396" fill="url(#a)" opacity=".25"/><circle cx="504" cy="816" r="342" fill="url(#b)" opacity=".16"/><circle cx="320" cy="707" r="10" fill="#ff6a00" opacity="0.025"/><circle cx="491" cy="443" r="9" fill="#1687ff" opacity="0.037"/><circle cx="822" cy="1135" r="25" fill="#ff6a00" opacity="0.049"/><circle cx="45" cy="743" r="16" fill="#1687ff" opacity="0.061"/><circle cx="670" cy="1011" r="12" fill="#ff6a00" opacity="0.073"/><circle cx="849" cy="557" r="10" fill="#1687ff" opacity="0.025"/><circle cx="283" cy="274" r="9" fill="#ff6a00" opacity="0.037"/><circle cx="77" cy="405" r="27" fill="#1687ff" opacity="0.049"/><circle cx="650" cy="361" r="17" fill="#ff6a00" opacity="0.061"/><circle cx="569" cy="841" r="29" fill="#1687ff" opacity="0.073"/><circle cx="444" cy="182" r="35" fill="#ff6a00" opacity="0.025"/><circle cx="229" cy="55" r="21" fill="#1687ff" opacity="0.037"/><circle cx="289" cy="830" r="14" fill="#ff6a00" opacity="0.049"/><circle cx="65" cy="501" r="28" fill="#1687ff" opacity="0.061"/><circle cx="849" cy="264" r="18" fill="#ff6a00" opacity="0.073"/><circle cx="839" cy="395" r="13" fill="#1687ff" opacity="0.025"/><circle cx="230" cy="871" r="10" fill="#ff6a00" opacity="0.037"/><circle cx="783" cy="525" r="9" fill="#1687ff" opacity="0.049"/><g opacity=".09" stroke="#fff" stroke-width="2"><path d="M0 240h900M0 480h900M0 720h900M0 960h900"/></g><g transform="translate(693 336)" opacity=".65"><circle r="125" fill="none" stroke="#1687ff" stroke-width="13"/><circle r="84" fill="none" stroke="#ff6a00" stroke-width="8"/><path d="M0-150l17 105 53 22-53 22L0 150-17-105l-53-22 53-22z" fill="#eef2f8"/></g><g transform="translate(468 924)"><circle cy="-210" r="70" fill="#956347"/><path d="M-66-246q66-62 132 0" stroke="#171719" stroke-width="34" fill="none"/><path d="M-140 230c15-154 46-260 105-319h70c59 59 90 165 105 319z" fill="#0c1016" stroke="#2a313d" stroke-width="8"/><path d="M-102-42h204l-28 224H-74z" fill="#11161d" stroke="#ff6a00" stroke-width="8"/><path d="M-36-32h72v165h-72z" fill="#ece7df"/><path d="M-99 8l198 155M99 8l-198 155" stroke="#ff6a00" stroke-width="6" opacity=".7"/><ellipse cx="-76" cy="245" rx="72" ry="23" fill="#eee"/><ellipse cx="76" cy="245" rx="72" ry="23" fill="#eee"/></g><text x="55" y="70" fill="#ff6a00" font-family="Arial,sans-serif" font-size="21" font-weight="800" letter-spacing="7">ANIMANGA UPDATES</text><text x="55" y="116" fill="#acb7c8" font-family="Arial,sans-serif" font-size="15" font-weight="700" letter-spacing="2">OLD MAN OTAKU • JULY 29, 2026</text><text x="55" y="205" fill="#fff" font-family="Arial,sans-serif" font-size="61" font-weight="900"><tspan x="55" dy="0">A New Gundam Universe</tspan><tspan x="55" dy="65">Begins With XARX-ZERO</tspan></text><rect x="55" y="1126" width="300" height="8" fill="#ff6a00"/><rect x="375" y="1126" width="130" height="8" fill="#1687ff"/></svg>