<svg xmlns="http://www.w3.org/2000/svg" viewBox="0 0 1600 900"><defs><linearGradient id="b" x1="0" x2="1"><stop stop-color="#071515"/><stop offset="1" stop-color="#123a3a"/></linearGradient></defs><rect width="1600" height="900" fill="url(#b)"/><g opacity=".2" stroke="#4cd6c5"><path d="M0 180h1600M0 360h1600M0 540h1600M0 720h1600"/><path d="M200 0v900M500 0v900M800 0v900M1100 0v900M1400 0v900"/></g><g transform="translate(220 110)"><circle cx="270" cy="180" r="105" fill="#d9e6e7" stroke="#65f1e1" stroke-width="9"/><path d="M205 160q65-95 130 0v80q-65 45-130 0z" fill="#10181d"/><path d="M220 195h38M283 195h38" stroke="#54edff" stroke-width="12"/><path d="M165 315q105-90 210 0l95 300H70z" fill="#c7d6d7" stroke="#79f0df" stroke-width="10"/><path d="M215 345h110l35 150-90 75-90-75z" fill="#18272c"/><circle cx="110" cy="430" r="45" fill="#adbfc1"/><circle cx="430" cy="430" r="45" fill="#adbfc1"/></g><g transform="translate(900 205)" stroke="#d78932" stroke-width="20" fill="none"><path d="M0 230h250l90-100 170 20"/><path d="M250 230l80 160 160 40"/><circle cx="250" cy="230" r="40" fill="#402510"/><circle cx="340" cy="130" r="38" fill="#402510"/></g><rect x="925" y="90" width="520" height="125" rx="18" fill="#512b1e" stroke="#ff9a48" stroke-width="6"/><text x="1185" y="145" text-anchor="middle" fill="#ffd0a5" font-family="Arial" font-size="42" font-weight="900">ROBOTS AT WORK</text><text x="1185" y="188" text-anchor="middle" fill="white" font-family="Arial" font-size="28">NOT JUST DEMOS</text><text x="90" y="800" fill="white" font-family="Arial" font-size="66" font-weight="900">HUMANOID ROBOTS: PROVE IT</text><text x="94" y="852" fill="#85e6da" font-family="Arial" font-size="30">ROGUEVERSE TECH • ROBOTICS</text></svg>