<svg xmlns="http://www.w3.org/2000/svg" viewBox="0 0 1600 900" role="img" aria-labelledby="t d"><title id="t">Is X-Men ’97 American Anime?</title><desc id="d">Original RogueVerse editorial illustration for Is X-Men ’97 American Anime?.</desc><defs><linearGradient id="bg" x1="0" y1="0" x2="1" y2="1"><stop stop-color="#05070b"/><stop offset=".52" stop-color="#0b1020"/><stop offset="1" stop-color="#05070b"/></linearGradient><radialGradient id="ra"><stop stop-color="#ff6a00"/><stop offset="1" stop-color="#ff6a00" stop-opacity="0"/></radialGradient><radialGradient id="rb"><stop stop-color="#9c62ff"/><stop offset="1" stop-color="#9c62ff" stop-opacity="0"/></radialGradient><filter id="glow"><feGaussianBlur stdDeviation="11" result="g"/><feMerge><feMergeNode in="g"/><feMergeNode in="SourceGraphic"/></feMerge></filter></defs><rect width="1600" height="900" fill="url(#bg)"/><circle cx="1200" cy="405" r="387" fill="url(#ra)" opacity=".24"/><circle cx="928" cy="594" r="342" fill="url(#rb)" opacity=".16"/><circle cx="1089" cy="176" r="27" fill="#ff6a00" opacity="0.025"/><circle cx="50" cy="824" r="32" fill="#9c62ff" opacity="0.039"/><circle cx="537" cy="555" r="34" fill="#ff6a00" opacity="0.053"/><circle cx="126" cy="550" r="35" fill="#9c62ff" opacity="0.067"/><circle cx="1552" cy="640" r="21" fill="#ff6a00" opacity="0.081"/><circle cx="758" cy="300" r="14" fill="#9c62ff" opacity="0.025"/><circle cx="1485" cy="111" r="25" fill="#ff6a00" opacity="0.039"/><circle cx="886" cy="230" r="18" fill="#9c62ff" opacity="0.053"/><circle cx="161" cy="228" r="12" fill="#ff6a00" opacity="0.067"/><circle cx="1038" cy="388" r="24" fill="#9c62ff" opacity="0.081"/><circle cx="1350" cy="708" r="15" fill="#ff6a00" opacity="0.025"/><circle cx="1130" cy="498" r="11" fill="#9c62ff" opacity="0.039"/><circle cx="1185" cy="455" r="24" fill="#ff6a00" opacity="0.053"/><circle cx="54" cy="304" r="30" fill="#9c62ff" opacity="0.067"/><g opacity=".09" stroke="#fff" stroke-width="2"><path d="M0 180h1600M0 360h1600M0 540h1600M0 720h1600"/><path d="M320 0v900M640 0v900M960 0v900M1280 0v900"/></g><g transform="translate(1130 175)" opacity=".72"><path d="M-155-92h130c34 0 59 17 75 43 16-26 41-43 75-43h130v210H125c-34 0-59 14-75 38-16-24-41-38-75-38h-130z" fill="none" stroke="#9c62ff" stroke-width="12"/><path d="M0-48v200M-116-48h75M-116 1h75M41-48h75M41 1h75" stroke="#ff6a00" stroke-width="9"/></g><g transform="translate(1264 540)"><circle cy="-200" r="72" fill="#9a684b"/><path d="M-65-238q65-64 130 0" stroke="#1a1715" stroke-width="36" fill="none"/><path d="M-135 255c14-158 43-266 100-326h70c57 60 86 168 100 326z" fill="#0b0e13" stroke="#282f39" stroke-width="8"/><path d="M-100-34h200l-27 250H-73z" fill="#11151b" stroke="#ff6a00" stroke-width="8"/><path d="M-35-24h70v176h-70z" fill="#eee8df"/><path d="M-96 18l192 164M96 18l-192 164" stroke="#ff6a00" stroke-width="6" opacity=".7"/><ellipse cx="-72" cy="270" rx="72" ry="24" fill="#eae9e5"/><ellipse cx="72" cy="270" rx="72" ry="24" fill="#eae9e5"/></g><text x="84" y="74" fill="#ff6a00" font-family="Arial,Helvetica,sans-serif" font-size="24" font-weight="800" letter-spacing="7">ROGUEVERSE MOVIES</text><text x="84" y="120" fill="#aeb9cb" font-family="Arial,Helvetica,sans-serif" font-size="17" font-weight="700" letter-spacing="2">OUR CULTURE · ANIMATION / DEEP DIVE • AUGUST 17, 2026</text><text x="84" y="250" fill="#fff" font-family="Arial,Helvetica,sans-serif" font-size="66" font-weight="900"><tspan x="84" dy="0">Is X-Men ’97 American Anime?</tspan></text><rect x="84" y="830" width="320" height="8" fill="#ff6a00"/><rect x="424" y="830" width="145" height="8" fill="#9c62ff"/></svg>