<svg xmlns="http://www.w3.org/2000/svg" viewBox="0 0 1600 820" role="img" aria-labelledby="t d"><title id="t">Generic anime-inspired convention cast stage</title><desc id="d">Seven original editorial figures in civilian formalwear standing beneath blue and orange convention lights. No Marvel character or actor likenesses are reproduced.</desc><defs><linearGradient id="bg" x1="0" y1="0" x2="1" y2="1"><stop stop-color="#07111f"/><stop offset=".55" stop-color="#101827"/><stop offset="1" stop-color="#05070c"/></linearGradient><radialGradient id="b" cx=".2" cy=".1" r=".7"><stop stop-color="#168cff" stop-opacity=".45"/><stop offset="1" stop-color="#168cff" stop-opacity="0"/></radialGradient><radialGradient id="o" cx=".8" cy=".1" r=".7"><stop stop-color="#ff7a1a" stop-opacity=".45"/><stop offset="1" stop-color="#ff7a1a" stop-opacity="0"/></radialGradient></defs><rect width="1600" height="820" fill="url(#bg)"/><rect width="1600" height="820" fill="url(#b)"/><rect width="1600" height="820" fill="url(#o)"/><g fill="#fff" opacity=".7"><circle cx="190" cy="82" r="12"/><circle cx="420" cy="82" r="12"/><circle cx="650" cy="82" r="12"/><circle cx="950" cy="82" r="12"/><circle cx="1180" cy="82" r="12"/><circle cx="1410" cy="82" r="12"/></g><g stroke="#0f1724" stroke-width="8"><path d="M0 130H1600"/><path d="M0 690H1600"/></g><g transform="translate(210 215)"><g><circle cx="90" cy="82" r="48" fill="#6f452f"/><path d="M38 75q8-76 62-76t65 78q-10-20-28-28-20 22-80 19z" fill="#20140f"/><path d="M42 145q48-34 98 0l20 276H20z" fill="#1a3157"/><path d="M28 165l-30 230M152 165l30 230" stroke="#6f452f" stroke-width="24" stroke-linecap="round"/></g><g transform="translate(165)"><circle cx="90" cy="82" r="48" fill="#d5a07f"/><path d="M35 92Q32 10 92 8q60 2 56 86-25-38-59-37-27 18-54 35z" fill="#17171b"/><path d="M44 145q48-34 94 0l22 276H22z" fill="#17191f"/><path d="M25 175l-25 210M157 175l25 210" stroke="#d5a07f" stroke-width="23" stroke-linecap="round"/></g><g transform="translate(330)"><circle cx="90" cy="82" r="48" fill="#efc39d"/><path d="M38 83Q44 5 94 7q57 7 58 81-22-28-62-29-31 10-52 24z" fill="#d8b36c"/><path d="M40 145q50-32 100 0l18 276H22z" fill="#eee9df"/><path d="M28 168l-22 213M152 168l22 213" stroke="#efc39d" stroke-width="23" stroke-linecap="round"/></g><g transform="translate(500)"><circle cx="90" cy="82" r="48" fill="#c28662"/><path d="M37 78q18-76 72-65 45 10 42 72-28-27-61-24-29 8-53 17z" fill="#18151a"/><path d="M39 145q51-32 102 0l18 276H21z" fill="#48502d"/><path d="M28 168l-20 213M152 168l20 213" stroke="#c28662" stroke-width="23" stroke-linecap="round"/></g><g transform="translate(670)"><circle cx="90" cy="82" r="48" fill="#e0b28d"/><path d="M40 70q18-66 74-56 42 10 39 68-24-22-59-21-27 3-54 9z" fill="#7f4e25"/><path d="M39 145q51-32 102 0l18 276H21z" fill="#11151b"/><path d="M28 168l-20 213M152 168l20 213" stroke="#e0b28d" stroke-width="23" stroke-linecap="round"/></g><g transform="translate(840)"><circle cx="90" cy="82" r="48" fill="#c89879"/><path d="M39 73q12-61 65-61 43 5 48 67-25-21-61-19-28 2-52 13z" fill="#28242a"/><path d="M39 145q51-32 102 0l18 276H21z" fill="#171a20"/><path d="M28 168l-20 213M152 168l20 213" stroke="#c89879" stroke-width="23" stroke-linecap="round"/></g><g transform="translate(1010)"><circle cx="90" cy="82" r="48" fill="#efbe99"/><path d="M42 86q-1-57 36-70 49-17 77 36-22 0-35 14-31-4-78 20z" fill="#9a4f2f"/><path d="M39 145q51-32 102 0l18 276H21z" fill="#b69a74"/><path d="M28 168l-20 213M152 168l20 213" stroke="#efbe99" stroke-width="23" stroke-linecap="round"/></g></g><g fill="#fff"><text x="80" y="650" font-family="Arial, sans-serif" font-size="30" font-weight="700" letter-spacing="4">ROGUEVERSE MOVIES · EDITORIAL ILLUSTRATION</text><text x="80" y="700" font-family="Arial, sans-serif" font-size="52" font-weight="800">A NEW GENERATION STEPS ONTO THE STAGE</text><text x="80" y="748" font-family="Arial, sans-serif" font-size="24" fill="#b6c5d8">Generic visual interpretation. No actor likenesses or Marvel character designs reproduced.</text></g></svg>