<svg xmlns="http://www.w3.org/2000/svg" viewBox="0 0 900 1200" role="img" aria-labelledby="t d"><title id="t">One Piece: The Battle of Alabasta Season 3 casting update</title><desc id="d">RogueVerse mobile editorial card for the One Piece live-action Alabasta casting announcement.</desc><defs><linearGradient id="sky" x1="0" y1="0" x2="0" y2="1"><stop stop-color="#09152b"/><stop offset=".55" stop-color="#ce6426"/><stop offset="1" stop-color="#f0b05e"/></linearGradient><linearGradient id="sand" x1="0" y1="0" x2="1" y2="1"><stop stop-color="#dda050"/><stop offset="1" stop-color="#6d3a21"/></linearGradient></defs><rect width="900" height="1200" fill="url(#sky)"/><circle cx="710" cy="180" r="74" fill="#ffd58a" opacity=".84"/><path d="M0 860 Q170 800 330 860 T640 855 T900 830 V1200 H0Z" fill="url(#sand)"/><path d="M0 960 Q200 900 420 970 T900 940 V1200 H0Z" fill="#7b4527" opacity=".58"/><g opacity=".25" fill="#170d09"><path d="M650 520h110v320H650z"/><path d="M680 470h50v50h-50z"/><path d="M610 620h40v220h-40z"/><path d="M760 600h60v240h-60z"/></g><text x="52" y="72" fill="#ffd37a" font-family="Arial,Helvetica,sans-serif" font-size="19" font-weight="800" letter-spacing="4">ANIMANGA UPDATES • AUGUST 23, 2026</text><text x="52" y="180" fill="#fff" font-family="Arial,Helvetica,sans-serif" font-size="68" font-weight="900">ONE PIECE</text><text x="52" y="245" fill="#fff" font-family="Arial,Helvetica,sans-serif" font-size="38" font-weight="800">THE BATTLE OF</text><text x="52" y="294" fill="#fff" font-family="Arial,Helvetica,sans-serif" font-size="38" font-weight="800">ALABASTA</text><text x="52" y="382" fill="#ffe8be" font-family="Arial,Helvetica,sans-serif" font-size="29" font-weight="700">Four new Season 3 cast members</text><text x="52" y="422" fill="#ffe8be" font-family="Arial,Helvetica,sans-serif" font-size="29" font-weight="700">revealed</text><g fill="#fff" font-family="Arial,Helvetica,sans-serif" font-size="25" font-weight="700"><text x="55" y="520">EMILIO SAKRAYA • KOZA</text><text x="55" y="568">OMID ABTAHI • TOTO</text><text x="55" y="616">JAMIE WARD • PELL</text><text x="55" y="664">NABEEL KHAN • CHAKA</text></g><rect x="52" y="1120" width="250" height="8" fill="#ff7a22"/><rect x="320" y="1120" width="100" height="8" fill="#f2c66d"/></svg>