<svg xmlns="http://www.w3.org/2000/svg" viewBox="0 0 900 1400" role="img" aria-labelledby="t d"><title id="t">Wrong Verse</title><desc id="d">Original RogueVerse mobile illustration of the Old Man Otaku guide seen from behind, facing an unfamiliar violet future city and an orange path home.</desc><defs><linearGradient id="sky" x1="0" y1="0" x2="0" y2="1"><stop stop-color="#02050d"/><stop offset=".55" stop-color="#0a1730"/><stop offset="1" stop-color="#07090f"/></linearGradient><radialGradient id="portal"><stop stop-color="#d2b4ff"/><stop offset=".24" stop-color="#854eff" stop-opacity=".72"/><stop offset=".65" stop-color="#1687ff" stop-opacity=".25"/><stop offset="1" stop-color="#1687ff" stop-opacity="0"/></radialGradient><linearGradient id="road" x1="0" y1="0" x2="0" y2="1"><stop stop-color="#ffb14a"/><stop offset="1" stop-color="#ff6a00" stop-opacity="0"/></linearGradient></defs><rect width="900" height="1400" fill="url(#sky)"/><circle cx="620" cy="330" r="300" fill="url(#portal)"/><circle cx="620" cy="330" r="142" fill="none" stroke="#9b6cff" stroke-width="12" opacity=".5"/><g fill="#091020" stroke="#26385b" stroke-width="2"><path d="M0 1000V690h90v310zm96 0V610h80v390zm86 0V735h96v265zm105 0V570h88v430zm97 0V660h118v340zm128 0V520h92v480zm103 0V700h102v300zm111 0V590h124v410z"/></g><g fill="#1687ff" opacity=".62"><rect x="28" y="760" width="18" height="42"/><rect x="120" y="684" width="17" height="40"/><rect x="320" y="635" width="18" height="45"/><rect x="530" y="590" width="19" height="44"/><rect x="742" y="662" width="18" height="40"/></g><path d="M315 1400c90-220 198-327 352-435 82-57 132-127 145-206 18 111-13 201-91 274-129 121-216 231-269 367z" fill="url(#road)" opacity=".72"/><g transform="translate(450 1295)"><ellipse rx="190" ry="32" fill="#000" opacity=".42"/><path d="M-122 28c18-150 41-259 91-333h62c50 74 73 183 91 333z" fill="#070a10" stroke="#222b38" stroke-width="8"/><circle cy="-350" r="72" fill="#704832"/><path d="M-69-336c8 69 30 104 69 104s61-35 69-104c-3 101-24 144-69 144s-66-43-69-144z" fill="#e8eaeb"/><path d="M-82-245h164l48 188h-260z" fill="#0b1018"/><path d="M0-214v180" stroke="#ff6a00" stroke-width="9"/><path d="M-104-152l-62 72M104-152l62 72" stroke="#1687ff" stroke-width="7" opacity=".75"/></g><circle cx="100" cy="160" r="4" fill="#fff"/><circle cx="210" cy="250" r="3" fill="#fff"/><circle cx="410" cy="140" r="3" fill="#fff"/><circle cx="760" cy="190" r="4" fill="#fff"/></svg>