<svg xmlns="http://www.w3.org/2000/svg" viewBox="0 0 900 620" role="img" aria-labelledby="t d"><title id="t">Collectibles</title><desc id="d">RogueVerse Shop collectibles artwork featuring an original display figure inside a futuristic illuminated case.</desc><defs><linearGradient id="bg" x1="0" y1="0" x2="1" y2="1"><stop stop-color="#05070b"/><stop offset=".58" stop-color="#11101d"/><stop offset="1" stop-color="#170906"/></linearGradient><radialGradient id="p"><stop stop-color="#9b4dff"/><stop offset="1" stop-color="#9b4dff" stop-opacity="0"/></radialGradient></defs><rect width="900" height="620" fill="url(#bg)"/><circle cx="620" cy="300" r="260" fill="url(#p)" opacity=".3"/><g transform="translate(620 325)"><rect x="-205" y="-225" width="410" height="455" rx="22" fill="#0a0d13" fill-opacity=".8" stroke="#586779" stroke-width="9"/><rect x="-180" y="-198" width="360" height="390" rx="10" fill="#111827" stroke="#9b4dff" stroke-width="5" opacity=".84"/><ellipse cx="0" cy="162" rx="132" ry="27" fill="#ff6a00" opacity=".28"/><g><circle cy="-92" r="54" fill="#8d5c46"/><path d="M-77 142c11-111 31-188 77-238 46 50 66 127 77 238z" fill="#10151d" stroke="#ff6a00" stroke-width="7"/><path d="M-47-106q47-42 94 0" stroke="#0d0c0c" stroke-width="26" fill="none"/><path d="M-102-5l-65 76M102-5l65 76" stroke="#1687ff" stroke-width="10"/><path d="M-40 45h80" stroke="#d5a94c" stroke-width="8"/></g><path d="M-160-160h55M105-160h55M-160 145h55M105 145h55" stroke="#fff" stroke-width="6" opacity=".34"/></g><text x="56" y="74" fill="#ff7b19" font-family="Arial,sans-serif" font-size="22" font-weight="800" letter-spacing="6">ROGUEVERSE SHOP</text><text x="56" y="130" fill="#fff" font-family="Arial,sans-serif" font-size="54" font-weight="900">COLLECTIBLES</text><rect x="56" y="552" width="270" height="8" fill="#9b4dff"/><rect x="344" y="552" width="120" height="8" fill="#ff6a00"/></svg>